<svg width="128" height="34" viewBox="0 0 128 34" fill="none" xmlns="http://www.w3.org/2000/svg">
<path d="M20.3687 16.62C20.393 14.1809 21.5852 11.9374 23.5194 10.6592C22.9134 9.73248 22.1139 8.97041 21.1846 8.43371C20.2553 7.89701 19.2219 7.60051 18.1668 7.56787C15.9284 7.307 13.7508 9.00264 12.6073 9.00264C11.4394 9.00264 9.67549 7.59395 7.77772 7.63308C6.54993 7.67599 5.35341 8.05892 4.30457 8.74463C3.25573 9.43034 2.39029 10.3955 1.79247 11.5461C-0.798705 16.3591 1.13555 23.4156 3.61724 27.3026C4.85809 29.1939 6.29358 31.3199 8.20351 31.2417C10.0526 31.1634 10.7582 29.9765 12.9844 29.9765C15.2106 29.9765 15.8554 31.2417 17.7896 31.2025C19.7847 31.1634 21.0377 29.2852 22.2421 27.3678C23.1301 26.0113 23.8236 24.5113 24.2737 22.933C23.1166 22.408 22.1293 21.5294 21.4349 20.4067C20.7405 19.2841 20.3696 17.9671 20.3687 16.62V16.62ZM16.7069 5.01136C17.7947 3.61426 18.3315 1.81742 18.2033 0.00268555C16.5366 0.198337 15.0038 1.04616 13.909 2.38963C13.37 3.04648 12.9573 3.81084 12.6942 4.63897C12.4312 5.4671 12.3231 6.34272 12.3762 7.21569C13.2067 7.2246 14.0282 7.03076 14.7786 6.64885C15.5289 6.26694 16.1883 5.70697 16.7069 5.01136V5.01136Z" fill="white"/>
<path d="M45.8549 25.2419H40.1007L38.7139 29.6245H36.2809L41.7309 13.4245H44.2734L49.7234 29.6245H47.2417L45.8549 25.2419ZM40.6968 23.2202H45.2588L43.0082 16.1115H42.9474L40.6968 23.2202ZM61.4992 23.7158C61.4992 27.381 59.6745 29.7419 56.9008 29.7419C56.2008 29.7819 55.5043 29.6098 54.8912 29.2454C54.2781 28.8809 53.773 28.3388 53.4337 27.681H53.3851V33.5245H51.1224V17.8071H53.3121V19.7636H53.3486C53.7032 19.1068 54.2176 18.5657 54.8369 18.1981C55.4561 17.8305 56.1569 17.6503 56.8643 17.6767C59.6623 17.6767 61.4992 20.0506 61.4992 23.7158ZM59.1757 23.7158C59.1757 21.3289 58.02 19.7506 56.2561 19.7506C54.5408 19.7506 53.3729 21.3549 53.3729 23.7158C53.3729 26.0897 54.5408 27.694 56.2682 27.694C58.02 27.694 59.1757 26.1288 59.1757 23.7158ZM73.6157 23.7158C73.6157 27.381 71.7909 29.7419 69.0295 29.7419C68.3294 29.7819 67.633 29.6098 67.0199 29.2454C66.4067 28.8809 65.9016 28.3388 65.5624 27.681H65.5016V33.5245H63.251V17.8071H65.4407V19.7636H65.4772C65.8308 19.1088 66.3433 18.569 66.9603 18.2015C67.5772 17.834 68.2754 17.6527 68.9808 17.6767C71.7788 17.6767 73.6157 20.0506 73.6157 23.7158V23.7158ZM71.3043 23.7158C71.3043 21.3289 70.1487 19.7506 68.3847 19.7506C66.6573 19.7506 65.5016 21.3549 65.5016 23.7158C65.5016 26.0897 66.6573 27.694 68.3847 27.694C70.1487 27.694 71.3043 26.1288 71.3043 23.7158ZM81.6326 25.1114C81.8029 26.7158 83.2505 27.7723 85.2456 27.7723C87.1555 27.7723 88.5302 26.7158 88.5302 25.268C88.5302 24.0028 87.6908 23.2593 85.7322 22.7375L83.7858 22.2289C81 21.5115 79.7226 20.1289 79.7226 17.8724C79.7226 15.068 81.9853 13.1506 85.2091 13.1506C88.4085 13.1506 90.5983 15.068 90.6713 17.8724H88.3842C88.2504 16.255 86.9974 15.2637 85.1848 15.2637C83.36 15.2637 82.1192 16.255 82.1192 17.7028C82.1192 18.8376 82.9099 19.5289 84.8563 20.0376L86.5229 20.468C89.6251 21.2506 90.9024 22.5941 90.9024 24.9549C90.9024 27.994 88.6518 29.8853 85.0753 29.8853C81.7299 29.8853 79.4672 28.0332 79.3212 25.1114H81.6326V25.1114ZM95.7928 15.0158V17.8071H97.8852V19.7245H95.7928V26.2462C95.7928 27.2506 96.2064 27.7201 97.131 27.7201C97.3743 27.7201 97.6176 27.694 97.8609 27.668V29.5723C97.4594 29.6636 97.0336 29.7027 96.62 29.6897C94.3816 29.6897 93.5179 28.7766 93.5179 26.4941V19.7245H91.9121V17.8071H93.5179V15.0158H95.7928ZM99.0895 23.7158C99.0895 19.9984 101.133 17.6637 104.321 17.6637C107.508 17.6637 109.552 20.0115 109.552 23.7158C109.552 27.4462 107.52 29.7679 104.321 29.7679C101.121 29.7679 99.0895 27.4462 99.0895 23.7158ZM107.24 23.7158C107.24 21.1723 106.145 19.6723 104.321 19.6723C102.496 19.6723 101.401 21.1723 101.401 23.7158C101.401 26.2723 102.496 27.7593 104.321 27.7593C106.145 27.7593 107.24 26.2723 107.24 23.7158ZM111.413 17.8071H113.566V19.8158H113.615C113.919 18.5245 115.026 17.6376 116.267 17.6897C116.522 17.6897 116.79 17.7158 117.045 17.781V20.0506C116.715 19.9388 116.37 19.8859 116.023 19.8941C115.694 19.8783 115.365 19.9397 115.059 20.0739C114.754 20.2082 114.479 20.412 114.255 20.6714C114.03 20.9308 113.861 21.2394 113.759 21.5759C113.657 21.9125 113.624 22.2688 113.663 22.6202V29.6245H111.413V17.8071V17.8071ZM127.459 26.1549C127.155 28.294 125.208 29.7679 122.714 29.7679C119.515 29.7679 117.532 27.4593 117.532 23.768C117.532 20.0636 119.527 17.6637 122.629 17.6637C125.67 17.6637 127.592 19.9071 127.592 23.4941V24.3158H119.807V24.4723C119.772 24.9069 119.824 25.3444 119.959 25.7559C120.094 26.1674 120.308 26.5434 120.589 26.8592C120.87 27.1749 121.21 27.423 121.587 27.5872C121.963 27.7514 122.369 27.8278 122.775 27.8114C123.87 27.9158 124.904 27.2506 125.318 26.1549H127.459V26.1549ZM119.819 22.6332H125.33C125.35 22.2424 125.295 21.8513 125.167 21.4845C125.04 21.1177 124.843 20.783 124.59 20.5014C124.336 20.2198 124.031 19.9973 123.694 19.8479C123.357 19.6985 122.994 19.6254 122.629 19.6332C121.887 19.6332 121.175 19.9493 120.651 20.5119C120.126 21.0745 119.831 21.8376 119.831 22.6332H119.819Z" fill="white"/>
<path d="M40.4167 1.22872C40.8905 1.19371 41.3657 1.27181 41.8079 1.45738C42.2502 1.64296 42.6486 1.93139 42.9744 2.30191C43.3002 2.67242 43.5453 3.1158 43.692 3.60009C43.8387 4.08439 43.8835 4.59755 43.823 5.10262C43.823 7.58087 42.57 9.01565 40.4167 9.01565H37.7891V1.22872H40.4167V1.22872ZM38.9204 7.90695H40.2829C40.6209 7.9279 40.959 7.86815 41.2728 7.73201C41.5866 7.59586 41.8683 7.38672 42.0976 7.11968C42.3268 6.85264 42.498 6.53435 42.5986 6.1878C42.6992 5.84124 42.7268 5.47505 42.6795 5.11566C42.7268 4.75627 42.6992 4.39008 42.5986 4.04353C42.498 3.69697 42.3268 3.37869 42.0976 3.11165C41.8683 2.8446 41.5866 2.63546 41.2728 2.49932C40.959 2.36318 40.6209 2.30342 40.2829 2.32437H38.9204V7.90695ZM45.1003 6.06783C45.076 5.68785 45.1248 5.30657 45.2437 4.94767C45.3626 4.58876 45.549 4.25991 45.7915 3.98152C46.0339 3.70313 46.3271 3.48117 46.6529 3.32941C46.9788 3.17765 47.3302 3.09933 47.6854 3.09933C48.0406 3.09933 48.3921 3.17765 48.7179 3.32941C49.0437 3.48117 49.3369 3.70313 49.5793 3.98152C49.8218 4.25991 50.0082 4.58876 50.1271 4.94767C50.246 5.30657 50.2948 5.68785 50.2705 6.06783C50.2948 6.44781 50.246 6.82909 50.1271 7.188C50.0082 7.5469 49.8218 7.87576 49.5793 8.15414C49.3369 8.43253 49.0437 8.6545 48.7179 8.80626C48.3921 8.95802 48.0406 9.03633 47.6854 9.03633C47.3302 9.03633 46.9788 8.95802 46.6529 8.80626C46.3271 8.6545 46.0339 8.43253 45.7915 8.15414C45.549 7.87576 45.3626 7.5469 45.2437 7.188C45.1248 6.82909 45.076 6.44781 45.1003 6.06783V6.06783ZM49.1513 6.06783C49.1513 4.80262 48.6282 4.05915 47.6915 4.05915C46.7426 4.05915 46.2195 4.80262 46.2195 6.06783C46.2195 7.35913 46.7426 8.08956 47.6793 8.08956C48.6282 8.08956 49.1513 7.34609 49.1513 6.06783V6.06783ZM57.1316 9.01565H56.0125L54.8811 4.68523H54.7959L53.6646 9.01565H52.5697L51.0491 3.14611H52.1439L53.1171 7.62H53.2023L54.3337 3.13306H55.3677L56.4991 7.62H56.5842L57.5574 3.13306H58.6401L57.1316 9.01565ZM59.9053 3.14611H60.9515V4.07219H61.0367C61.3165 3.38089 61.9734 2.9635 62.6668 3.02871C62.9332 3.00598 63.2009 3.04798 63.45 3.15158C63.6991 3.25519 63.9232 3.41772 64.1056 3.62709C64.2881 3.83646 64.4241 4.08725 64.5035 4.36079C64.583 4.63434 64.6038 4.92358 64.5646 5.20697V9.01565H63.4697V5.49392C63.4697 4.5548 63.1047 4.08523 62.3018 4.08523C62.1204 4.07463 61.9389 4.10648 61.7701 4.17857C61.6012 4.25067 61.449 4.36128 61.324 4.50275C61.199 4.64421 61.1042 4.81313 61.0462 4.9978C60.9882 5.18247 60.9683 5.37846 60.988 5.57218V9.01565H59.9053V3.14611ZM66.292 0.850464H67.3625V9.01565H66.2798L66.292 0.850464ZM68.871 6.06783C68.8467 5.68785 68.8955 5.30657 69.0144 4.94767C69.1333 4.58876 69.3197 4.25991 69.5622 3.98152C69.8046 3.70313 70.0978 3.48117 70.4236 3.32941C70.7494 3.17765 71.1009 3.09933 71.4561 3.09933C71.8113 3.09933 72.1628 3.17765 72.4886 3.32941C72.8144 3.48117 73.1076 3.70313 73.35 3.98152C73.5925 4.25991 73.7789 4.58876 73.8978 4.94767C74.0167 5.30657 74.0655 5.68785 74.0412 6.06783C74.0655 6.44781 74.0167 6.82909 73.8978 7.188C73.7789 7.5469 73.5925 7.87576 73.35 8.15414C73.1076 8.43253 72.8144 8.6545 72.4886 8.80626C72.1628 8.95802 71.8113 9.03633 71.4561 9.03633C71.1009 9.03633 70.7494 8.95802 70.4236 8.80626C70.0978 8.6545 69.8046 8.43253 69.5622 8.15414C69.3197 7.87576 69.1333 7.5469 69.0144 7.188C68.8955 6.82909 68.8467 6.44781 68.871 6.06783ZM72.922 6.06783C72.922 4.80262 72.3867 4.05915 71.4622 4.05915C70.5133 4.05915 69.9902 4.80262 69.9902 6.06783C69.9902 7.35913 70.5133 8.08956 71.45 8.08956C72.3867 8.08956 72.922 7.34609 72.922 6.06783V6.06783ZM75.1726 7.34609C75.1726 6.30261 75.9025 5.68957 77.2163 5.59827L78.7005 5.50697V4.99827C78.7005 4.38523 78.3112 4.03306 77.5691 4.03306C76.9608 4.03306 76.5472 4.26784 76.4377 4.68523H75.3794C75.501 3.66784 76.3769 3.02871 77.6178 3.02871C78.9924 3.02871 79.771 3.75915 79.771 4.99827V9.01565H78.7248V8.18087H78.6396C78.2868 8.79391 77.6664 9.14608 76.9973 9.10695C76.7672 9.13248 76.5347 9.10599 76.3147 9.02918C76.0947 8.95236 75.8922 8.82694 75.7202 8.661C75.5483 8.49507 75.4107 8.2923 75.3164 8.06581C75.222 7.83932 75.173 7.59414 75.1726 7.34609V7.34609ZM78.7005 6.85044V6.35479L77.3623 6.44609C76.608 6.49826 76.2674 6.78522 76.2674 7.29391C76.2674 7.81565 76.6932 8.12869 77.2771 8.12869C77.4495 8.14843 77.6237 8.13072 77.7895 8.07662C77.9553 8.02252 78.1092 7.93314 78.2421 7.81383C78.375 7.69451 78.484 7.5477 78.5628 7.38218C78.6415 7.21665 78.6884 7.0358 78.7005 6.85044V6.85044ZM81.1943 6.06783C81.1943 4.21567 82.0824 3.04176 83.4692 3.04176C84.1626 3.00263 84.8195 3.40697 85.148 4.07219H85.221V0.850464H86.3158V9.01565H85.2696V8.08956H85.1845C84.8317 8.74173 84.1748 9.13304 83.4692 9.10695C82.0702 9.10695 81.1943 7.93304 81.1943 6.06783V6.06783ZM82.3135 6.06783C82.3135 7.32 82.8609 8.06347 83.7733 8.06347C84.6857 8.06347 85.2453 7.30696 85.2453 6.08088C85.2453 4.85479 84.6735 4.08523 83.7733 4.08523C82.8609 4.08523 82.3135 4.84175 82.3135 6.06783ZM90.7804 6.06783C90.7561 5.68785 90.8049 5.30657 90.9238 4.94767C91.0427 4.58876 91.2292 4.25991 91.4716 3.98152C91.714 3.70313 92.0073 3.48117 92.3331 3.32941C92.6589 3.17765 93.0103 3.09933 93.3655 3.09933C93.7208 3.09933 94.0722 3.17765 94.398 3.32941C94.7238 3.48117 95.017 3.70313 95.2595 3.98152C95.5019 4.25991 95.6884 4.58876 95.8073 4.94767C95.9262 5.30657 95.975 5.68785 95.9506 6.06783C95.975 6.44781 95.9262 6.82909 95.8073 7.188C95.6884 7.5469 95.5019 7.87576 95.2595 8.15414C95.017 8.43253 94.7238 8.6545 94.398 8.80626C94.0722 8.95802 93.7208 9.03633 93.3655 9.03633C93.0103 9.03633 92.6589 8.95802 92.3331 8.80626C92.0073 8.6545 91.714 8.43253 91.4716 8.15414C91.2292 7.87576 91.0427 7.5469 90.9238 7.188C90.8049 6.82909 90.7561 6.44781 90.7804 6.06783ZM94.8314 6.06783C94.8314 4.80262 94.2962 4.05915 93.3716 4.05915C92.4227 4.05915 91.8996 4.80262 91.8996 6.06783C91.8996 7.35913 92.4227 8.08956 93.3594 8.08956C94.2962 8.08956 94.8314 7.34609 94.8314 6.06783V6.06783ZM97.3983 3.14611H98.4323V4.07219H98.5175C98.7973 3.38089 99.4542 2.9635 100.16 3.02871C100.425 3.00805 100.691 3.05159 100.939 3.15611C101.187 3.26062 101.409 3.42345 101.59 3.63256C101.771 3.84168 101.906 4.09172 101.985 4.36423C102.064 4.63674 102.084 4.92474 102.045 5.20697V9.01565H100.975V5.49392C100.975 4.5548 100.586 4.08523 99.7826 4.08523C99.6022 4.07658 99.4221 4.10988 99.2547 4.18284C99.0874 4.2558 98.9367 4.3667 98.8131 4.50794C98.6894 4.64917 98.5957 4.81741 98.5384 5.0011C98.4811 5.18479 98.4615 5.37961 98.481 5.57218V9.01565H97.3861V3.14611H97.3983ZM108.164 1.6722V3.17219H109.344V4.13741H108.164V7.16348C108.164 7.77652 108.396 8.05043 108.931 8.05043L109.344 8.02435V8.98956C109.15 9.02869 108.955 9.04173 108.761 9.04173C107.544 9.04173 107.082 8.58521 107.082 7.46348V4.13741H106.206V3.17219H107.082V1.6722H108.164V1.6722ZM110.816 0.850464H111.899V4.08523H111.984C112.276 3.39393 112.945 2.9635 113.651 3.04176C113.915 3.02593 114.179 3.07276 114.425 3.17892C114.67 3.28508 114.891 3.44795 115.071 3.65594C115.251 3.86394 115.386 4.11193 115.467 4.38227C115.547 4.65261 115.571 4.93864 115.537 5.22001V9.0026H114.454V5.50697C114.454 4.56784 114.04 4.09828 113.286 4.09828C113.1 4.08027 112.912 4.10637 112.736 4.17473C112.56 4.2431 112.4 4.35204 112.268 4.49388C112.136 4.63572 112.034 4.80699 111.97 4.99557C111.907 5.18415 111.882 5.38544 111.899 5.58523V9.01565H110.816V0.850464ZM121.838 7.42435C121.69 7.95991 121.372 8.42291 120.938 8.73274C120.505 9.04256 119.984 9.1796 119.466 9.11999C119.106 9.12902 118.748 9.0543 118.417 8.90097C118.087 8.74764 117.791 8.51934 117.551 8.23177C117.31 7.94421 117.131 7.6042 117.025 7.23515C116.918 6.8661 116.888 6.47676 116.936 6.09392C116.889 5.70924 116.919 5.31823 117.025 4.94727C117.131 4.5763 117.31 4.23402 117.55 3.94351C117.789 3.65299 118.085 3.42101 118.415 3.2632C118.746 3.10539 119.104 3.02543 119.466 3.02871C120.986 3.02871 121.899 4.13741 121.899 5.98957V6.38087H118.043V6.45913C118.026 6.67477 118.051 6.89182 118.117 7.09637C118.183 7.30091 118.288 7.48842 118.425 7.64687C118.563 7.80531 118.729 7.93119 118.915 8.01641C119.1 8.10163 119.301 8.14432 119.502 8.14174C120.025 8.20695 120.536 7.92 120.804 7.42435H121.838V7.42435ZM118.043 5.53305H120.804C120.818 5.33666 120.793 5.1394 120.731 4.95378C120.67 4.76816 120.573 4.59823 120.448 4.45475C120.322 4.31128 120.17 4.19739 120.001 4.12031C119.832 4.04323 119.65 4.00463 119.466 4.00697C119.278 4.00344 119.091 4.0405 118.917 4.11594C118.743 4.19138 118.585 4.30366 118.452 4.44608C118.319 4.5885 118.215 4.75814 118.144 4.94489C118.074 5.13164 118.039 5.33167 118.043 5.53305V5.53305Z" fill="white"/>
</svg>
